<!DOCTYPE svg PUBLIC "-//W3C//DTD SVG 1.1//EN" "http://www.w3.org/Graphics/SVG/1.1/DTD/svg11.dtd">

<!-- Uploaded to: SVG Repo, www.svgrepo.com, Transformed by: SVG Repo Mixer Tools -->
<svg width="800px" height="800px" viewBox="0 0 26 26" xmlns="http://www.w3.org/2000/svg" fill="#949494" stroke="#949494" stroke-width="0.00026000000000000003">

<g id="SVGRepo_bgCarrier" stroke-width="0"/>

<g id="SVGRepo_tracerCarrier" stroke-linecap="round" stroke-linejoin="round" stroke="#CCCCCC" stroke-width="0.156"/>

<g id="SVGRepo_iconCarrier"> <g id="Group_715" data-name="Group 715" transform="translate(-100 -50)"> <path id="Path_1500" data-name="Path 1500" d="M112,64v2h-2V64Zm4,0v2h-2V64Zm4,0v2h-2V64Zm-14,0h2v2h-2Zm14,7H106V69h14Zm4,5H102a2.006,2.006,0,0,1-2-2V61a2.006,2.006,0,0,1,2-2h4V56a2.006,2.006,0,0,1,2-2h12V50h2v4a2.006,2.006,0,0,1-2,2H108v5h-6V74h22V61H111a1,1,0,0,1,0-2h13a2.006,2.006,0,0,1,2,2V74A2.006,2.006,0,0,1,124,76Z" fill="#525252"/> </g> </g>

</svg>